 <svg version="1.0" xmlns="http://www.w3.org/2000/svg" width=
 "220.000000pt" height="50.000000pt" viewbox=
 "0 0 220.000000 50.000000" preserveaspectratio="xMidYMid meet">
 <g transform=
 "translate(0.000000,94.000000) scale(0.100000,-0.100000)" fill=
 "#000000" stroke="none">
     <path d=
     "M770 740 c-13 -24 -5 -40 19 -40 24 0 45 25 37 45 -8 22 -43 18 -56 -5z"></path>
     <path d=
     "M664 572 c-50 -77 -254 -332 -265 -332 -23 0 -199 -93 -238 -126 -60 -52 -54 -94 12 -94 63 0 187 93 278 206 14 17 61 50 105 72 43 23 101 62 128 87 27 25 50 45 51 45 1 0 0 -11 -2 -24 -6 -30 28 -66 62 -66 35 0 85 22 115 51 16 15 34 23 49 21 13 -2 36 6 52 17 15 12 30 21 32 21 1 0 1 -15 -1 -34 -12 -101 145 -99 242 3 39 41 28 39 -23 -3 -75 -63 -169 -83 -185 -40 -4 10 -2 32 4 50 9 25 20 36 48 45 99 32 177 90 170 126 -3 19 -44 29 -82 19 -41 -10 -115 -68 -151 -117 -32 -45 -97 -90 -110 -77 -3 3 6 25 20 49 27 47 33 117 13 137 -44 44 -182 -28 -228 -118 -10 -21 -42 -58 -71 -84 -51 -46 -180 -128 -188 -120 -3 2 7 17 21 32 14 15 74 89 132 165 l105 137 -32 0 c-27 0 -37 -8 -63 -48z m316 23 c17 -21 6 -83 -20 -107 -11 -10 -20 -25 -20 -33 0 -7 -21 -32 -46 -54 -53 -47 -108 -57 -117 -22 -11 43 77 169 148 212 36 23 39 23 55 4z m295 5 c13 -21 -25 -59 -90 -91 -36 -17 -68 -30 -71 -27 -3 3 21 33 53 67 56 59 93 76 108 51z m-927 -432 c-80 -92 -131 -128 -179 -128 -21 0 -39 5 -39 10 0 26 74 84 165 130 55 27 102 50 104 50 2 0 -21 -28 -51 -62z"></path>
     <path d=
     "M1445 591 c-27 -16 -68 -51 -91 -77 -34 -42 -41 -57 -43 -100 -2 -62 13 -79 64 -70 22 5 53 24 87 58 52 50 52 50 8 16 -58 -45 -83 -58 -111 -58 -19 0 -21 4 -15 31 12 59 123 187 183 210 31 12 63 3 63 -17 0 -21 -18 -55 -47 -85 -13 -15 -26 -34 -27 -44 -1 -9 -36 -58 -77 -109 -71 -89 -78 -95 -164 -135 -154 -71 -227 -138 -194 -177 17 -21 88 -13 133 16 31 19 124 111 177 177 14 17 46 41 70 53 62 32 127 77 179 126 l45 42 -3 -39 c-5 -44 10 -69 40 -69 31 0 93 36 126 74 39 44 54 48 17 5 -33 -40 -30 -73 7 -77 56 -7 134 56 263 211 45 54 65 69 65 47 0 -5 -38 -64 -84 -130 l-85 -120 32 0 c26 0 37 7 57 37 43 63 195 211 224 219 55 14 49 -11 -31 -117 -43 -57 -84 -112 -91 -121 -12 -16 -10 -18 15 -18 23 0 40 15 98 87 38 47 70 92 71 98 1 7 5 22 9 34 16 53 -56 69 -116 26 -19 -14 -65 -57 -103 -97 -52 -56 -61 -63 -36 -28 91 128 97 150 44 150 -20 0 -39 -13 -68 -47 -103 -118 -174 -187 -211 -204 -43 -19 -60 -14 -49 16 4 9 45 63 91 119 80 96 82 101 58 104 -17 2 -33 -4 -46 -20 -11 -13 -18 -17 -14 -10 11 21 -15 42 -54 42 -62 -1 -114 -33 -211 -134 -84 -87 -209 -186 -257 -203 -14 -5 -13 0 8 23 14 16 74 91 132 167 104 134 106 137 77 137 -19 0 -34 -8 -44 -22 -16 -22 -16 -22 -16 -1 0 43 -83 45 -155 4z m501 4 c12 -29 -6 -63 -71 -133 -61 -65 -138 -118 -157 -106 -40 25 52 161 151 225 50 33 69 36 77 14z m-612 -377 c-20 -33 -113 -131 -145 -153 -41 -29 -99 -34 -99 -9 0 27 63 78 157 127 100 52 97 51 87 35z"></path>
     <path d=
     "M2485 601 c-35 -22 -83 -71 -68 -71 5 0 20 12 34 26 43 47 109 70 109 39 0 -8 -27 -47 -61 -87 -92 -110 -106 -148 -58 -163 36 -12 79 6 132 55 l53 48 -4 -33 c-8 -67 68 -96 154 -60 38 16 164 131 164 149 -1 6 -20 -10 -43 -35 -76 -83 -159 -128 -213 -115 -18 5 -24 13 -24 35 0 50 9 58 106 106 68 33 98 53 108 74 43 82 -102 62 -184 -26 -124 -132 -178 -180 -205 -185 -16 -4 -33 -4 -38 -1 -4 2 14 30 41 61 96 111 119 161 90 190 -18 18 -59 15 -93 -7z m370 -1 c13 -21 -28 -62 -91 -92 -36 -17 -67 -28 -70 -26 -2 3 22 33 55 67 56 58 91 75 106 51z"></path>
 </g></svg>
